<svg width="834" height="128" viewBox="0 0 834 128" fill="none" xmlns="http://www.w3.org/2000/svg">
<path d="M251.156 24.959L270.879 75.1621L288.211 29.8398L306.091 75.3613L325.365 24.959H330.744L305.344 91.5479H302.057L285.721 50.3594L270.082 91.5479H266.297L240.05 24.959H251.156ZM360.814 92.0957C357.361 92.0957 354.107 91.4482 351.052 90.1533C348.031 88.8584 345.391 87.0986 343.134 84.874C340.876 82.6494 339.083 80.043 337.755 77.0547C336.46 74.0332 335.812 70.8291 335.812 67.4424C335.812 63.3584 336.41 59.5898 337.605 56.1367C338.801 52.6504 340.494 49.6455 342.685 47.1221C344.877 44.5986 347.5 42.623 350.554 41.1953C353.642 39.7676 357.079 39.0537 360.864 39.0537C364.184 39.0537 367.239 39.6514 370.028 40.8467C372.817 42.0088 375.208 43.5859 377.2 45.5781C379.225 47.5371 380.786 49.8115 381.882 52.4014C383.011 54.9912 383.575 57.6973 383.575 60.5195H345.574C345.574 63.9395 346.006 67.1104 346.869 70.0322C347.765 72.9541 349.011 75.4775 350.604 77.6025C352.198 79.7275 354.091 81.3877 356.282 82.583C358.473 83.7783 360.881 84.376 363.504 84.376C365.695 84.376 367.803 84.0273 369.829 83.3301C371.854 82.5996 373.68 81.6533 375.307 80.4912C376.968 79.3291 378.379 78.001 379.541 76.5068C380.703 75.0127 381.516 73.4688 381.981 71.875L384.92 73.1699C384.189 75.793 383.011 78.25 381.384 80.541C379.757 82.832 377.847 84.8408 375.656 86.5674C373.498 88.2607 371.14 89.6055 368.584 90.6016C366.027 91.5977 363.437 92.0957 360.814 92.0957ZM370.875 56.4355C370.875 54.5098 370.526 52.7168 369.829 51.0566C369.165 49.3965 368.235 47.9688 367.04 46.7734C365.844 45.5449 364.45 44.582 362.856 43.8848C361.262 43.1875 359.552 42.8389 357.726 42.8389C356.199 42.8389 354.738 43.1875 353.344 43.8848C351.949 44.5488 350.704 45.4951 349.608 46.7236C348.512 47.9189 347.599 49.3467 346.869 51.0068C346.172 52.667 345.757 54.46 345.624 56.3857L370.875 56.4355ZM430.529 91C429.201 90.3359 428.072 89.4062 427.142 88.2109C426.246 86.9824 425.797 85.5879 425.797 84.0273C424.602 84.9238 423.423 85.8535 422.261 86.8164C421.132 87.7793 419.887 88.6592 418.526 89.4561C417.198 90.2197 415.704 90.8506 414.043 91.3486C412.417 91.8467 410.524 92.0957 408.366 92.0957C406.374 92.0957 404.564 91.7637 402.937 91.0996C401.343 90.4688 399.982 89.5889 398.853 88.46C397.757 87.3311 396.894 85.9863 396.263 84.4258C395.666 82.8652 395.367 81.1885 395.367 79.3955C395.367 77.2041 395.798 75.2285 396.662 73.4688C397.525 71.709 398.704 70.1484 400.198 68.7871C401.725 67.3926 403.485 66.1641 405.477 65.1016C407.469 64.0059 409.594 63.043 411.852 62.2129C414.11 61.3496 416.434 60.5859 418.825 59.9219C421.215 59.2578 423.54 58.6436 425.797 58.0791V54.8916C425.797 52.5674 425.631 50.6084 425.299 49.0146C424.967 47.4209 424.453 46.1426 423.755 45.1797C423.058 44.1836 422.162 43.4863 421.066 43.0879C420.003 42.6562 418.725 42.4404 417.231 42.4404C415.803 42.4404 414.492 42.7227 413.296 43.2871C412.101 43.8516 411.039 44.6152 410.109 45.5781C409.212 46.5078 408.465 47.6201 407.868 48.915C407.303 50.1768 406.921 51.5215 406.722 52.9492H397.459C397.724 50.7578 398.471 48.7988 399.7 47.0723C400.961 45.3457 402.539 43.9014 404.431 42.7393C406.324 41.5439 408.465 40.6309 410.856 40C413.28 39.3691 415.787 39.0537 418.376 39.0537C421.697 39.0537 424.486 39.3857 426.744 40.0498C429.001 40.6807 430.811 41.5771 432.172 42.7393C433.534 43.9014 434.497 45.3291 435.061 47.0225C435.659 48.6826 435.958 50.5254 435.958 52.5508V84.0273C435.958 85.5879 436.406 86.9824 437.302 88.2109C438.232 89.4062 439.361 90.3359 440.689 91H430.529ZM425.797 61.3164C424.336 61.7812 422.826 62.3125 421.265 62.9102C419.705 63.5078 418.177 64.1885 416.683 64.9521C415.189 65.6826 413.761 66.4795 412.4 67.3428C411.039 68.2061 409.843 69.1357 408.814 70.1318C407.785 71.1279 406.971 72.1738 406.374 73.2695C405.776 74.3652 405.477 75.5107 405.477 76.7061C405.477 77.9678 405.709 79.1631 406.174 80.292C406.639 81.3877 407.253 82.3672 408.017 83.2305C408.781 84.0605 409.661 84.7246 410.657 85.2227C411.653 85.6875 412.682 85.9199 413.745 85.9199C414.874 85.9199 415.953 85.7705 416.982 85.4717C418.011 85.1729 419.007 84.7744 419.97 84.2764C420.933 83.7451 421.896 83.1475 422.859 82.4834C423.822 81.8193 424.801 81.1055 425.797 80.3418V61.3164ZM462.093 91H451.933V16.8906L459.155 14.002H462.093V91ZM490.171 22.668H493.06V40H504.415V44.333H493.06V80.2422C493.06 81.0059 493.192 81.7197 493.458 82.3838C493.757 83.0479 494.139 83.6289 494.604 84.127C495.102 84.625 495.683 85.0234 496.347 85.3223C497.011 85.5879 497.741 85.7207 498.538 85.7207C499.667 85.7207 500.696 85.4385 501.626 84.874C502.556 84.3096 503.369 83.6123 504.066 82.7822L506.606 84.4756C505.212 86.833 503.402 88.6924 501.178 90.0537C498.953 91.415 496.197 92.0957 492.91 92.0957C491.217 92.0957 489.739 91.7969 488.478 91.1992C487.216 90.6348 486.17 89.8379 485.34 88.8086C484.543 87.7461 483.945 86.501 483.547 85.0732C483.148 83.6123 482.949 82.002 482.949 80.2422V44.333H474.084V42.4404L482.949 40V25.5068L490.171 22.668ZM529.704 49.3633C532.725 45.9102 535.913 43.3369 539.266 41.6436C542.62 39.917 546.007 39.0537 549.427 39.0537C551.22 39.0537 552.88 39.4521 554.407 40.249C555.968 41.0459 557.329 42.1416 558.491 43.5361C559.653 44.9307 560.566 46.5742 561.23 48.4668C561.894 50.3262 562.226 52.3184 562.226 54.4434V91H552.116V56.1865C552.116 52.7998 551.352 50.2432 549.825 48.5166C548.298 46.7568 546.339 45.877 543.948 45.877C542.886 45.877 541.757 46.0596 540.561 46.4248C539.366 46.79 538.154 47.3047 536.926 47.9688C535.697 48.5996 534.469 49.3633 533.24 50.2598C532.012 51.1562 530.833 52.1523 529.704 53.248V91H519.544V16.8906L526.815 14.002H529.704V49.3633ZM579.696 24.959H600.614C604.067 24.959 607.304 25.374 610.326 26.2041C613.347 27.0342 615.97 28.2627 618.195 29.8896C620.453 31.4834 622.212 33.459 623.474 35.8164C624.769 38.1406 625.417 40.8135 625.417 43.835C625.417 46.8232 624.786 49.4297 623.524 51.6543C622.295 53.8789 620.652 55.7217 618.593 57.1826C616.568 58.6436 614.26 59.7393 611.67 60.4697C609.081 61.167 606.441 61.5156 603.752 61.5156C602.589 61.5156 601.378 61.499 600.116 61.4658C598.854 61.3994 597.642 61.3164 596.48 61.2168C595.318 61.1172 594.239 61.001 593.243 60.8682C592.247 60.7354 591.433 60.6025 590.802 60.4697V91H579.696V24.959ZM590.802 56.7344C592.064 57.166 593.409 57.5312 594.836 57.8301C596.264 58.0957 597.725 58.2285 599.219 58.2285C601.61 58.2285 603.702 57.8799 605.495 57.1826C607.288 56.4521 608.782 55.4727 609.977 54.2441C611.172 52.9824 612.052 51.5215 612.617 49.8613C613.214 48.168 613.513 46.375 613.513 44.4824C613.513 42.2578 613.131 40.249 612.368 38.4561C611.604 36.6631 610.542 35.1357 609.18 33.874C607.852 32.5791 606.275 31.583 604.449 30.8857C602.656 30.1885 600.73 29.8398 598.671 29.8398H590.802V56.7344ZM661.613 92.0957C657.695 92.0957 654.092 91.415 650.805 90.0537C647.518 88.6924 644.679 86.8496 642.288 84.5254C639.898 82.168 638.022 79.4287 636.66 76.3076C635.332 73.1533 634.668 69.7832 634.668 66.1973C634.668 62.4453 635.332 58.9258 636.66 55.6387C638.022 52.3184 639.898 49.4297 642.288 46.9727C644.679 44.5156 647.518 42.5898 650.805 41.1953C654.092 39.7676 657.695 39.0537 661.613 39.0537C665.497 39.0537 669.067 39.7012 672.321 40.9961C675.608 42.291 678.447 44.0674 680.837 46.3252C683.228 48.583 685.087 51.2393 686.415 54.2939C687.777 57.3154 688.457 60.5693 688.457 64.0557C688.457 67.9072 687.777 71.543 686.415 74.9629C685.087 78.3496 683.228 81.3213 680.837 83.8779C678.447 86.4014 675.608 88.4102 672.321 89.9043C669.067 91.3652 665.497 92.0957 661.613 92.0957ZM663.555 88.3604C665.547 88.3604 667.373 87.8457 669.034 86.8164C670.694 85.7871 672.121 84.4092 673.317 82.6826C674.512 80.9229 675.442 78.8975 676.106 76.6064C676.77 74.3154 677.102 71.8916 677.102 69.335C677.102 65.6494 676.786 62.1963 676.156 58.9756C675.525 55.7549 674.495 52.9492 673.068 50.5586C671.64 48.168 669.781 46.292 667.49 44.9307C665.199 43.5361 662.409 42.8389 659.122 42.8389C657.429 42.8389 655.785 43.3369 654.192 44.333C652.598 45.2959 651.187 46.624 649.958 48.3174C648.763 50.0107 647.8 52.0029 647.07 54.2939C646.339 56.5518 645.974 58.959 645.974 61.5156C645.974 65.2344 646.356 68.7207 647.119 71.9746C647.916 75.2285 649.062 78.0674 650.556 80.4912C652.083 82.915 653.926 84.8408 656.084 86.2686C658.276 87.6631 660.766 88.3604 663.555 88.3604ZM703.188 41.9424L710.31 39.0537H713.248V91H703.188V41.9424ZM702.391 20.4766C702.391 19.6797 702.54 18.9326 702.839 18.2354C703.138 17.5381 703.553 16.9238 704.084 16.3926C704.615 15.8613 705.23 15.4463 705.927 15.1475C706.624 14.8486 707.371 14.6992 708.168 14.6992C708.965 14.6992 709.712 14.8486 710.409 15.1475C711.107 15.4463 711.721 15.8613 712.252 16.3926C712.783 16.9238 713.198 17.5381 713.497 18.2354C713.796 18.9326 713.945 19.6797 713.945 20.4766C713.945 21.2734 713.796 22.0205 713.497 22.7178C713.198 23.415 712.783 24.0293 712.252 24.5605C711.721 25.0918 711.107 25.5068 710.409 25.8057C709.712 26.1045 708.965 26.2539 708.168 26.2539C707.371 26.2539 706.624 26.1045 705.927 25.8057C705.23 25.5068 704.615 25.0918 704.084 24.5605C703.553 24.0293 703.138 23.415 702.839 22.7178C702.54 22.0205 702.391 21.2734 702.391 20.4766ZM738.637 39.0537H741.525V49.3633C744.613 45.9102 747.817 43.3369 751.138 41.6436C754.458 39.917 757.828 39.0537 761.248 39.0537C763.041 39.0537 764.701 39.4521 766.228 40.249C767.789 41.0459 769.15 42.1416 770.312 43.5361C771.474 44.9307 772.388 46.5742 773.052 48.4668C773.716 50.3262 774.048 52.3184 774.048 54.4434V91H763.937V56.1865C763.937 54.4932 763.738 53.0156 763.34 51.7539C762.941 50.459 762.377 49.3799 761.646 48.5166C760.916 47.6533 760.053 47.0059 759.056 46.5742C758.094 46.1094 757.014 45.877 755.819 45.877C754.757 45.877 753.628 46.0596 752.432 46.4248C751.237 46.79 750.009 47.3047 748.747 47.9688C747.518 48.5996 746.29 49.3633 745.061 50.2598C743.833 51.1562 742.654 52.1523 741.525 53.248V91H731.365V41.8926L738.637 39.0537ZM802.175 22.668H805.064V40H816.42V44.333H805.064V80.2422C805.064 81.0059 805.197 81.7197 805.463 82.3838C805.761 83.0479 806.143 83.6289 806.608 84.127C807.106 84.625 807.687 85.0234 808.351 85.3223C809.015 85.5879 809.746 85.7207 810.543 85.7207C811.672 85.7207 812.701 85.4385 813.63 84.874C814.56 84.3096 815.374 83.6123 816.071 82.7822L818.611 84.4756C817.216 86.833 815.407 88.6924 813.182 90.0537C810.958 91.415 808.202 92.0957 804.915 92.0957C803.221 92.0957 801.744 91.7969 800.482 91.1992C799.22 90.6348 798.174 89.8379 797.344 88.8086C796.547 87.7461 795.95 86.501 795.551 85.0732C795.153 83.6123 794.954 82.002 794.954 80.2422V44.333H786.089V42.4404L794.954 40V25.5068L802.175 22.668Z" fill="#B89769"/>
<circle cx="158.5" cy="56.5" r="38.5" fill="#6F3EAD"/>
<path d="M0 18L54 95H0V18Z" fill="#B89769"/>
<path d="M0 18L54 95H0V18Z" fill="#B89769"/>
<path d="M0 18L54 95H0V18Z" fill="#B89769"/>
<path d="M0 18L54 95H0V18Z" fill="#B89769"/>
<path d="M65 18L119 95H65V18Z" fill="#B89769"/>
<path d="M65 18L119 95H65V18Z" fill="#B89769"/>
</svg>
